<svg width="177" height="46" viewBox="0 0 177 46" fill="none" xmlns="http://www.w3.org/2000/svg">
<path d="M12.8282 15.7376H4.71296L3.31859 19.7141H0L6.94394 0.224023H10.6251L17.569 19.7141H14.2225L12.8282 15.7376ZM11.9358 13.1334L8.78451 4.08843L5.60535 13.1334H11.9358Z" fill="white"/>
<path d="M23.7674 17.1378H30.3209V19.7141H20.5883V0.252026H23.7674V17.1378Z" fill="white"/>
<path d="M36.1588 17.1378H42.7123V19.7141H32.9796V0.252026H36.1588V17.1378Z" fill="white"/>
<path d="M57.0557 15.7376H48.9405L47.5461 19.7141H44.2276L51.1715 0.224023H54.8526L61.7966 19.7141H58.4501L57.0557 15.7376ZM56.1633 13.1334L53.0121 4.08843L49.8329 13.1334H56.1633Z" fill="white"/>
<path d="M86.0873 5.85261C85.5853 4.88184 84.8882 4.15377 83.9958 3.66838C83.1034 3.16433 82.0715 2.9123 80.9003 2.9123C79.6174 2.9123 78.4741 3.20167 77.4701 3.78039C76.4662 4.35912 75.676 5.18054 75.0997 6.24465C74.542 7.30876 74.2631 8.54089 74.2631 9.94103C74.2631 11.3412 74.542 12.5826 75.0997 13.6654C75.676 14.7295 76.4662 15.551 77.4701 16.1297C78.4741 16.7084 79.6174 16.9978 80.9003 16.9978C82.6293 16.9978 84.0329 16.5124 85.1113 15.5416C86.1896 14.5708 86.8496 13.2547 87.0912 11.5932H79.8127V9.04494H90.4935V11.5372C90.289 13.0494 89.7498 14.4402 88.876 15.7096C88.0208 16.9791 86.896 17.9965 85.5017 18.7619C84.1259 19.5087 82.5921 19.8821 80.9003 19.8821C79.0783 19.8821 77.4143 19.462 75.9084 18.6219C74.4025 17.7632 73.2034 16.5777 72.311 15.0656C71.4372 13.5534 71.0003 11.8452 71.0003 9.94103C71.0003 8.03684 71.4372 6.32866 72.311 4.8165C73.2034 3.30434 74.4025 2.12822 75.9084 1.28813C77.4329 0.429378 79.0969 0 80.9003 0C82.9639 0 84.7952 0.513387 86.3941 1.54016C88.0115 2.54827 89.1828 3.98575 89.9079 5.85261H86.0873Z" fill="white"/>
<path d="M102.469 19.9101C100.666 19.9101 99.002 19.49 97.4775 18.6499C95.9716 17.7912 94.7725 16.6057 93.8801 15.0936C93.0063 13.5627 92.5694 11.8452 92.5694 9.94103C92.5694 8.03684 93.0063 6.32866 93.8801 4.8165C94.7725 3.30434 95.9716 2.12822 97.4775 1.28813C99.002 0.429378 100.666 0 102.469 0C104.291 0 105.955 0.429378 107.461 1.28813C108.986 2.12822 110.185 3.30434 111.059 4.8165C111.932 6.32866 112.369 8.03684 112.369 9.94103C112.369 11.8452 111.932 13.5627 111.059 15.0936C110.185 16.6057 108.986 17.7912 107.461 18.6499C105.955 19.49 104.291 19.9101 102.469 19.9101ZM102.469 17.1378C103.752 17.1378 104.896 16.8484 105.9 16.2697C106.903 15.6723 107.684 14.8322 108.242 13.7494C108.818 12.648 109.107 11.3785 109.107 9.94103C109.107 8.50355 108.818 7.24342 108.242 6.16064C107.684 5.07786 106.903 4.24711 105.9 3.66838C104.896 3.08966 103.752 2.80029 102.469 2.80029C101.187 2.80029 100.043 3.08966 99.0392 3.66838C98.0353 4.24711 97.2451 5.07786 96.6688 6.16064C96.1111 7.24342 95.8322 8.50355 95.8322 9.94103C95.8322 11.3785 96.1111 12.648 96.6688 13.7494C97.2451 14.8322 98.0353 15.6723 99.0392 16.2697C100.043 16.8484 101.187 17.1378 102.469 17.1378Z" fill="white"/>
<path d="M125.565 19.7141L121.103 11.9292H118.677V19.7141H115.498V0.252026H122.191C123.678 0.252026 124.933 0.513386 125.956 1.03611C126.997 1.55883 127.768 2.2589 128.27 3.13633C128.791 4.01375 129.051 4.99385 129.051 6.07663C129.051 7.3461 128.679 8.50355 127.936 9.54899C127.21 10.5758 126.086 11.2758 124.561 11.6492L129.358 19.7141H125.565ZM118.677 9.38098H122.191C123.381 9.38098 124.273 9.08228 124.868 8.48488C125.481 7.88749 125.788 7.08474 125.788 6.07663C125.788 5.06853 125.491 4.28445 124.896 3.72439C124.301 3.14566 123.399 2.8563 122.191 2.8563H118.677V9.38098Z" fill="white"/>
<path d="M136.297 0.252026V19.7141H133.118V0.252026H136.297Z" fill="white"/>
<path d="M156.395 19.7141H153.216L143.65 5.18054V19.7141H140.471V0.224023H143.65L153.216 14.7295V0.224023H156.395V19.7141Z" fill="white"/>
<path d="M172.254 15.7376H164.139L162.745 19.7141H159.426L166.37 0.224023H170.051L176.995 19.7141H173.649L172.254 15.7376ZM171.362 13.1334L168.211 4.08843L165.032 13.1334H171.362Z" fill="white"/>
<path d="M1.58703 33.8315C1.84618 33.2544 2.24055 32.8075 2.77013 32.4907C3.31097 32.1739 3.97013 32.0155 4.74759 32.0155V33.2544H4.42647C3.57013 33.2544 2.8828 33.4864 2.36449 33.9503C1.84618 34.4142 1.58703 35.1892 1.58703 36.2754V41.4517H0.403931V32.1852H1.58703V33.8315Z" fill="white"/>
<path d="M24.595 36.3432C24.595 36.7506 24.5837 37.0617 24.5612 37.2767H16.9049C16.9387 37.9782 17.1077 38.5778 17.4119 39.0757C17.7161 39.5735 18.1161 39.9525 18.6119 40.2127C19.1077 40.4617 19.6485 40.5861 20.2344 40.5861C21.0006 40.5861 21.6429 40.3994 22.1612 40.0261C22.6908 39.6527 23.0401 39.1492 23.2091 38.5156H24.4598C24.2344 39.4207 23.7499 40.1618 23.0063 40.7389C22.2739 41.3046 21.3499 41.5874 20.2344 41.5874C19.3668 41.5874 18.5894 41.3951 17.902 41.0104C17.2147 40.6144 16.6739 40.06 16.2795 39.3472C15.8964 38.6231 15.7049 37.7802 15.7049 36.8184C15.7049 35.8567 15.8964 35.0138 16.2795 34.2897C16.6626 33.5656 17.1978 33.0112 17.8851 32.6265C18.5725 32.2418 19.3556 32.0495 20.2344 32.0495C21.1133 32.0495 21.8795 32.2418 22.533 32.6265C23.1978 33.0112 23.7049 33.5316 24.0542 34.1879C24.4147 34.8328 24.595 35.5512 24.595 36.3432ZM23.395 36.3093C23.4063 35.6191 23.2654 35.0308 22.9725 34.5443C22.6908 34.0578 22.302 33.69 21.8063 33.4411C21.3105 33.1922 20.7696 33.0678 20.1837 33.0678C19.3049 33.0678 18.5556 33.3506 17.9358 33.9163C17.3161 34.482 16.9725 35.2797 16.9049 36.3093H23.395Z" fill="white"/>
<path d="M38.0159 33.1866V38.9399C38.0159 39.5056 38.1229 39.8959 38.337 40.1109C38.5511 40.3259 38.9286 40.4334 39.4694 40.4334H40.5511V41.4517H39.2835C38.4497 41.4517 37.83 41.2593 37.4244 40.8746C37.0187 40.4786 36.8159 39.8337 36.8159 38.9399V33.1866H35.5314V32.1852H36.8159V29.8601H38.0159V32.1852H40.5511V33.1866H38.0159Z" fill="white"/>
<path d="M56.2601 41.5874C55.3924 41.5874 54.6094 41.3951 53.9108 41.0104C53.2234 40.6144 52.677 40.06 52.2713 39.3472C51.877 38.6231 51.6798 37.7802 51.6798 36.8184C51.6798 35.8567 51.8826 35.0195 52.2882 34.3067C52.6939 33.5826 53.246 33.0282 53.9446 32.6435C54.6432 32.2475 55.4263 32.0495 56.2939 32.0495C57.1615 32.0495 57.9446 32.2475 58.6432 32.6435C59.353 33.0282 59.9051 33.5826 60.2995 34.3067C60.7051 35.0195 60.9079 35.8567 60.9079 36.8184C60.9079 37.7689 60.7051 38.6061 60.2995 39.3302C59.8939 40.0543 59.3361 40.6144 58.6263 41.0104C57.9164 41.3951 57.1277 41.5874 56.2601 41.5874ZM56.2601 40.5522C56.8685 40.5522 57.4319 40.4164 57.9502 40.1449C58.4685 39.862 58.8854 39.4434 59.2009 38.889C59.5277 38.3233 59.691 37.6331 59.691 36.8184C59.691 36.0038 59.5333 35.3193 59.2178 34.7649C58.9023 34.1992 58.4854 33.7806 57.9671 33.509C57.4488 33.2262 56.8854 33.0847 56.277 33.0847C55.6685 33.0847 55.1051 33.2262 54.5868 33.509C54.0685 33.7806 53.6516 34.1992 53.3361 34.7649C53.0319 35.3193 52.8798 36.0038 52.8798 36.8184C52.8798 37.6331 53.0319 38.3233 53.3361 38.889C53.6516 39.4434 54.0629 39.862 54.5699 40.1449C55.0882 40.4164 55.6516 40.5522 56.2601 40.5522Z" fill="white"/>
<path d="M80.7773 32.1852V41.4517H79.5942V39.8224C79.3237 40.3994 78.9068 40.8407 78.3435 41.1462C77.7801 41.4517 77.1491 41.6044 76.4505 41.6044C75.3463 41.6044 74.4449 41.265 73.7463 40.5861C73.0477 39.8959 72.6984 38.9003 72.6984 37.5991V32.1852H73.8646V37.4634C73.8646 38.4703 74.1125 39.2397 74.6083 39.7715C75.1153 40.3033 75.8026 40.5691 76.6702 40.5691C77.5604 40.5691 78.2702 40.2863 78.7998 39.7206C79.3294 39.1549 79.5942 38.3233 79.5942 37.2258V32.1852H80.7773Z" fill="white"/>
<path d="M92.6558 36.8184C92.6558 35.8567 92.8473 35.0195 93.2304 34.3067C93.6135 33.5826 94.1431 33.0282 94.8192 32.6435C95.4952 32.2475 96.267 32.0495 97.1347 32.0495C98.2727 32.0495 99.2079 32.3323 99.9403 32.898C100.684 33.4638 101.163 34.2331 101.377 35.2062H100.109C99.9516 34.5386 99.6079 34.0182 99.0783 33.6448C98.56 33.2601 97.9121 33.0678 97.1347 33.0678C96.5149 33.0678 95.9572 33.2092 95.4614 33.492C94.9656 33.7749 94.5713 34.1992 94.2783 34.7649C93.9966 35.3193 93.8558 36.0038 93.8558 36.8184C93.8558 37.6331 93.9966 38.3233 94.2783 38.889C94.5713 39.4547 94.9656 39.879 95.4614 40.1618C95.9572 40.4447 96.5149 40.5861 97.1347 40.5861C97.9121 40.5861 98.56 40.3994 99.0783 40.0261C99.6079 39.6414 99.9516 39.1096 100.109 38.4307H101.377C101.163 39.3811 100.684 40.1449 99.9403 40.7219C99.1966 41.2989 98.2614 41.5874 97.1347 41.5874C96.267 41.5874 95.4952 41.3951 94.8192 41.0104C94.1431 40.6144 93.6135 40.06 93.2304 39.3472C92.8473 38.6231 92.6558 37.7802 92.6558 36.8184Z" fill="white"/>
<path d="M117.675 32.0155C118.373 32.0155 118.999 32.1626 119.551 32.4568C120.114 32.751 120.554 33.2035 120.869 33.8145C121.196 34.4142 121.359 35.1496 121.359 36.0208V41.4517H120.193V36.1566C120.193 35.1496 119.939 34.3802 119.432 33.8484C118.937 33.3167 118.255 33.0508 117.387 33.0508C116.497 33.0508 115.787 33.3336 115.258 33.8994C114.728 34.4651 114.463 35.2967 114.463 36.3942V41.4517H113.28V28.8928H114.463V33.7636C114.756 33.2092 115.184 32.7792 115.748 32.4738C116.323 32.1683 116.965 32.0155 117.675 32.0155Z" fill="white"/>
<path d="M134.286 30.4372C134.049 30.4372 133.846 30.3523 133.677 30.1826C133.508 30.0129 133.424 29.8036 133.424 29.5547C133.424 29.3057 133.508 29.1021 133.677 28.9437C133.846 28.774 134.049 28.6891 134.286 28.6891C134.522 28.6891 134.725 28.774 134.894 28.9437C135.063 29.1021 135.148 29.3057 135.148 29.5547C135.148 29.8036 135.063 30.0129 134.894 30.1826C134.725 30.3523 134.522 30.4372 134.286 30.4372ZM134.877 32.1852V41.4517H133.694V32.1852H134.877Z" fill="white"/>
<path d="M151.601 32.0155C152.706 32.0155 153.607 32.3606 154.306 33.0508C155.004 33.7296 155.353 34.7196 155.353 36.0208V41.4517H154.187V36.1566C154.187 35.1496 153.934 34.3802 153.427 33.8484C152.931 33.3167 152.249 33.0508 151.382 33.0508C150.491 33.0508 149.782 33.3336 149.252 33.8994C148.722 34.4651 148.458 35.2967 148.458 36.3942V41.4517H147.275V32.1852H148.458V33.7636C148.751 33.1979 149.173 32.7679 149.725 32.4738C150.277 32.1683 150.903 32.0155 151.601 32.0155Z" fill="white"/>
<path d="M171.559 32.0495C172.426 32.0495 173.181 32.2531 173.823 32.6604C174.466 33.0678 174.928 33.5826 175.209 34.2048V32.1852H176.392V41.6893C176.392 42.5378 176.207 43.2902 175.835 43.9465C175.474 44.6027 174.967 45.1062 174.314 45.4569C173.66 45.819 172.916 46 172.083 46C170.9 46 169.914 45.7172 169.125 45.1514C168.347 44.5857 167.863 43.8163 167.671 42.8433H168.838C169.04 43.4882 169.423 44.003 169.987 44.3877C170.562 44.7724 171.26 44.9648 172.083 44.9648C172.68 44.9648 173.215 44.8346 173.688 44.5744C174.161 44.3255 174.533 43.9521 174.804 43.4543C175.074 42.9565 175.209 42.3681 175.209 41.6893V39.3981C174.916 40.0317 174.449 40.5578 173.807 40.9765C173.176 41.3838 172.426 41.5874 171.559 41.5874C170.714 41.5874 169.953 41.3894 169.277 40.9934C168.612 40.5974 168.088 40.0374 167.705 39.3133C167.333 38.5891 167.147 37.7519 167.147 36.8015C167.147 35.8511 167.333 35.0195 167.705 34.3067C168.088 33.5826 168.612 33.0282 169.277 32.6435C169.953 32.2475 170.714 32.0495 171.559 32.0495ZM175.209 36.8184C175.209 36.0717 175.057 35.4155 174.753 34.8498C174.449 34.284 174.032 33.8484 173.502 33.543C172.984 33.2375 172.409 33.0847 171.778 33.0847C171.125 33.0847 170.539 33.2318 170.021 33.526C169.502 33.8202 169.091 34.2501 168.787 34.8158C168.494 35.3702 168.347 36.0321 168.347 36.8015C168.347 37.5595 168.494 38.2271 168.787 38.8041C169.091 39.3698 169.502 39.8054 170.021 40.1109C170.539 40.4051 171.125 40.5522 171.778 40.5522C172.409 40.5522 172.984 40.3994 173.502 40.0939C174.032 39.7885 174.449 39.3529 174.753 38.7871C175.057 38.2214 175.209 37.5652 175.209 36.8184Z" fill="white"/>
</svg>
