<svg display="none" xmlns="http://www.w3.org/2000/svg">
  <symbol x="0" y="0" width="100" height="100"  id="instagram">
    <path d="M7.25 0h10.5A7.25 7.25 0 0 1 25 7.25v10.5A7.25 7.25 0 0 1 17.75 25H7.25A7.25 7.25 0 0 1 0 17.75V7.25A7.25 7.25 0 0 1 7.25 0zM7 2.5A4.5 4.5 0 0 0 2.5 7v11A4.5 4.5 0 0 0 7 22.5h11a4.5 4.5 0 0 0 4.5-4.5V7A4.5 4.5 0 0 0 18 2.5H7zm12.063 1.875a1.563 1.563 0 1 1 0 3.125 1.563 1.563 0 0 1 0-3.125zM12.5 6.25a6.25 6.25 0 1 1 0 12.5 6.25 6.25 0 0 1 0-12.5zm0 2.5a3.75 3.75 0 1 0 0 7.5 3.75 3.75 0 0 0 0-7.5z"
      fill="#fff"></path>
  </symbol>
  <symbol x="0" y="0" width="100" height="100" id="pointer">
    <path d="M3.154 30L0 26.846l13.423-13.423 13.423 13.423L23.69 30 13.423 19.754 3.154 30zm0-13.423L0 13.423 13.423 0l13.423 13.423-3.155 3.154L13.423 6.331 3.154 16.577z" fill="#000"></path>
  </symbol>
  <symbol x="0" y="8" width="100" height="100" id="select">
    <path d="M1.33 0l4.33 4.33L9.99 0l1.33 1.34L5.66 7 0 1.34 1.33 0z" fill="#fff"></path>
  </symbol>
  <symbol x="0" y="0" width="100" height="100" id="facebook">
    <path d="M2.778 0h19.444A2.778 2.778 0 0 1 25 2.778v19.444A2.778 2.778 0 0 1 22.222 25H2.778A2.778 2.778 0 0 1 0 22.222V2.778A2.778 2.778 0 0 1 2.778 0zm18.055 2.778h-3.472a4.861 4.861 0 0 0-4.861 4.86v3.473H9.722v4.167H12.5V25h4.167v-9.722h4.166V11.11h-4.166V8.333a1.389 1.389 0 0 1 1.389-1.389h2.777V2.778z"
      fill="#000"></path>
  </symbol>
</svg>